<?xml version="1.0" encoding="utf-8"?>
<!-- Generator: Adobe Illustrator 25.0.0, SVG Export Plug-In . SVG Version: 6.00 Build 0)  -->
<svg version="1.1" id="Capa_1" xmlns="http://www.w3.org/2000/svg" xmlns:xlink="http://www.w3.org/1999/xlink" x="0px" y="0px"
	 viewBox="0 0 528 528" style="enable-background:new 0 0 528 528;" xml:space="preserve">
<style type="text/css">
	.st0{fill:#009933;}
</style>
<path class="st0" d="M233.1,89L233.1,89c-5.6,0-10.1,4.6-10.1,10.2c0,5.6,4.5,10.1,10.1,10.2h0c5.6-0.1,10.1-4.6,10.1-10.2
	C243.2,93.7,238.7,89.1,233.1,89z"/>
<path class="st0" d="M16,437.3c0,22.8,18.5,41.2,41.2,41.2h412.5c22.8,0,41.2-18.5,41.2-41.2V168.5H16V437.3z M313.7,270.1
	c-3.7-3.1-4.1-8.7-1-12.3c3.1-3.7,8.7-4.1,12.3-1l56.6,48.2c2,1.7,3.1,4.1,3.1,6.7c0,2.6-1.1,5-3.1,6.7l-56.6,48.2
	c-3.7,3.1-9.2,2.7-12.3-1c-3.1-3.7-2.7-9.2,1-12.3l48.8-41.6L313.7,270.1z M234.9,394.2l35.3-167.5c1-4.7,5.6-7.8,10.4-6.8
	c4.7,1,7.8,5.6,6.8,10.4L252,397.8c-1,4.7-5.6,7.8-10.4,6.8C236.9,403.6,233.9,398.9,234.9,394.2z M145.3,305l56.6-48.2
	c3.7-3.1,9.2-2.7,12.3,1c3.1,3.7,2.7,9.2-1,12.3l-48.8,41.6l48.8,41.6c3.7,3.1,4.1,8.7,1,12.3c-3.1,3.7-8.7,4.1-12.3,1l-56.6-48.2
	c-2-1.7-3.1-4.1-3.1-6.7C142.3,309.1,143.4,306.6,145.3,305L145.3,305z"/>
<path class="st0" d="M148,88.8L148,88.8c-5.6,0.1-10,4.7-10,10.2c0,5.5,4.4,10,9.9,10.2h0c5.5-0.1,9.9-4.7,9.9-10.2
	C157.9,93.5,153.5,88.9,148,88.8L148,88.8z"/>
<path class="st0" d="M469.8,45.9H57.2C34.5,45.9,16,64.4,16,87.2V151h495V87.2C511,64.4,492.5,45.9,469.8,45.9z M62.9,126.4
	L62.9,126.4c-15.4,0-27.8-12.4-27.8-27.8s12.4-27.7,27.7-27.7c15.3,0,27.7,12.4,27.7,27.7C90.6,113.9,78.2,126.4,62.9,126.4z
	 M175.7,99.1c-0.1,15.3-12.4,27.6-27.7,27.6h-0.1c-15.1-0.3-27.2-12.6-27.2-27.7c0-15.1,12.2-27.4,27.3-27.6h0.1
	C163.4,71.4,175.7,83.8,175.7,99.1L175.7,99.1z M260.8,99.3c0,15.3-12.4,27.6-27.7,27.6H233c-15.2-0.1-27.5-12.5-27.5-27.7
	c0-15.2,12.3-27.6,27.6-27.6h0.1C248.5,71.6,260.8,84,260.8,99.3L260.8,99.3z"/>
<path class="st0" d="M63,88.5L63,88.5c-5.6,0.1-10,4.6-10,10.2c0,5.5,4.4,10.1,9.9,10.2h0c5.5-0.1,10-4.6,10-10.2
	C72.9,93.2,68.5,88.6,63,88.5z"/>
</svg>
